<svg width="32" height="28" viewBox="0 0 32 28" fill="none" xmlns="http://www.w3.org/2000/svg">
<path d="M29.2162 0.511011C30.4716 0.511011 31.4893 1.38204 31.4893 2.45651L31.4893 25.4134C31.4893 26.4879 30.4716 27.3589 29.2162 27.3589H2.78454C1.5291 27.3589 0.51137 26.4879 0.51137 25.4134L0.511371 2.45651C0.511371 1.38204 1.5291 0.51101 2.78454 0.51101L29.2162 0.511011Z" fill="#FAF0E6"/>
<path d="M21.9799 0.51101L21.9799 27.3589M0.51101 7.78231H6.82538C8.22031 7.78231 9.35112 8.78399 9.35112 10.0196V27.3589M21.9799 7.22298H31.4514M21.9799 13.9349H31.4514M21.9799 20.6469H31.4514M0.51101 20.6469H9.35112M0.51101 15.0536H9.35112M0.511371 2.45651L0.51137 25.4134C0.51137 26.4879 1.5291 27.3589 2.78454 27.3589H29.2162C30.4716 27.3589 31.4893 26.4879 31.4893 25.4134L31.4893 2.45651C31.4893 1.38204 30.4716 0.511011 29.2162 0.511011L2.78454 0.51101C1.5291 0.51101 0.511371 1.38204 0.511371 2.45651Z" stroke="#4B4544" stroke-linecap="round"/>
</svg>
