<svg width="26" height="18" viewBox="0 0 26 18" fill="none" xmlns="http://www.w3.org/2000/svg">
<path opacity="0.45" d="M20.5578 0.764706L6.9222 17.0784M8.38735 14.881C4.85605 13.102 2.42278 9.95876 2.42278 9.95876C2.42278 9.95876 7.15963 3.84814 13.0019 3.84814C14.4322 3.87031 15.839 4.19587 17.1192 4.80093M19.0814 5.89089C20.7849 7.0276 22.3002 8.39861 23.5772 9.95876C23.4726 10.1097 23.3547 10.252 23.2248 10.3842C22.9021 10.7568 22.5645 11.119 22.2121 11.4671C20.5985 13.0774 18.6957 14.5364 16.4886 15.3556C14.9129 15.9589 13.2001 16.1684 11.5144 15.9639C11.2208 15.937 10.9338 15.8645 10.6649 15.7494M20.8174 3.36294C22.4521 4.42508 23.9368 5.68108 25.2353 7.10034M0.764706 7.10034C0.764706 7.10034 6.24342 0.771736 13.0056 0.771736C15.1359 0.81759 17.221 1.36363 19.074 2.36092M15.0902 7.32184L14.8528 7.11794C14.295 6.79291 13.6529 6.62126 12.9981 6.62218C12.0596 6.62218 11.1595 6.97556 10.4959 7.60459C9.83223 8.23362 9.45941 9.08678 9.45941 9.97636C9.4587 10.4661 9.57124 10.95 9.78914 11.394C10.007 11.8381 10.325 12.2314 10.7206 12.5464M16.3736 8.94618C16.484 9.27353 16.5403 9.61509 16.5405 9.95876C16.5405 10.8483 16.1677 11.7015 15.504 12.3305C14.8404 12.9595 13.9404 13.3129 13.0019 13.3129" stroke="#363130" stroke-width="1.5" stroke-linecap="round" stroke-linejoin="round"/>
</svg>
