<svg width="29" height="22" viewBox="0 0 29 22" fill="none" xmlns="http://www.w3.org/2000/svg">
<path d="M7.14094 16.6108V20.6414H21.9314V16.3368M21.9314 7.44439V4.44003C21.9314 3.52252 21.5601 2.6426 20.8993 1.99383C20.2384 1.34505 19.3422 0.980599 18.4076 0.980599H4.00971C3.20719 0.984271 2.43869 1.29916 1.87166 1.85671C1.30463 2.41425 0.985096 3.16921 0.982608 3.95708V6.79893H4.9983M7.14096 17.0009V3.95708C7.13847 3.16841 6.81823 2.41274 6.25018 1.85506C5.68213 1.29739 4.91241 0.983048 4.10907 0.980599M10.064 5.6102H14.2405M10.064 9.74761H15.896M10.064 14.6094H18.6346M25.6775 7.04503C25.0572 6.80955 24.3835 6.74351 23.7281 6.85389C23.0726 6.96427 22.4599 7.24694 21.955 7.6719C21.4502 7.24694 20.8374 6.96427 20.182 6.85389C19.5265 6.74351 18.8529 6.80955 18.2326 7.04503C17.7825 7.21656 17.3712 7.4735 17.0222 7.80114C16.6733 8.12877 16.3935 8.52067 16.199 8.95449C16.0044 9.38831 15.8988 9.85557 15.8882 10.3295C15.8776 10.8034 15.9622 11.2747 16.1372 11.7165C16.8562 13.5368 21.9503 16.4715 21.9503 16.4715C22.1584 16.3554 27.0444 13.5414 27.7634 11.7211C27.9394 11.2797 28.0251 10.8085 28.0155 10.3345C28.0059 9.86047 27.9012 9.39295 27.7075 8.95868C27.5138 8.52442 27.2348 8.13188 26.8865 7.80352C26.5381 7.47517 26.1273 7.21743 25.6775 7.04503Z" stroke="#F4B5A4" stroke-width="1.911" stroke-miterlimit="10"/>
</svg>
