<svg width="24" height="24" viewBox="0 0 24 24" fill="none" xmlns="http://www.w3.org/2000/svg">
<path d="M3.72133 5.28912H3.72253M3.72253 5.28912H22.5248C22.6014 5.28891 22.677 5.30581 22.7462 5.33859C22.8154 5.37136 22.8764 5.41919 22.9247 5.47856C22.973 5.53793 23.0075 5.60733 23.0255 5.68172C23.0436 5.75611 23.0448 5.83358 23.029 5.9085L21.19 14.6909C21.1666 14.8025 21.1068 14.9033 21.0198 14.9772C20.9329 15.0511 20.8238 15.0939 20.7098 15.099H6.21343M3.72253 5.28912L6.175 15.099H6.21343M3.72253 5.28912L2.8138 1.65418C2.76359 1.45532 2.64849 1.2789 2.48673 1.15279C2.32497 1.02669 2.12579 0.958128 1.92069 0.957958H0M6.21343 15.099V17.375C6.2128 17.5562 6.248 17.7357 6.31703 17.9032C6.38606 18.0707 6.48755 18.2228 6.61564 18.3509C6.74374 18.479 6.89592 18.5805 7.0634 18.6495C7.23089 18.7185 7.41037 18.7537 7.59152 18.7531H21.3868" stroke="#F4B5A4" stroke-width="1.911" stroke-miterlimit="10"/>
<path d="M7.01884 23.315C7.85419 23.315 8.53138 22.6378 8.53138 21.8024C8.53138 20.9671 7.85419 20.2899 7.01884 20.2899C6.18349 20.2899 5.5063 20.9671 5.5063 21.8024C5.5063 22.6378 6.18349 23.315 7.01884 23.315Z" fill="#F4B5A4"/>
<path d="M17.8563 23.315C18.6917 23.315 19.3689 22.6378 19.3689 21.8024C19.3689 20.9671 18.6917 20.2899 17.8563 20.2899C17.021 20.2899 16.3438 20.9671 16.3438 21.8024C16.3438 22.6378 17.021 23.315 17.8563 23.315Z" fill="#F4B5A4"/>
</svg>
